<?xml version="1.0" encoding="UTF-8"?><svg id="b" xmlns="http://www.w3.org/2000/svg" viewBox="0 0 123.15 23.14"><defs><style>.d{fill:none;stroke:#000;stroke-miterlimit:10;}</style></defs><g id="c"><path class="d" d="M72.37,11.96c-.07,0-.15,0-.22,0-.44,.03-.87-.04-1.29-.15-.29-.08-.58-.11-.88-.16-.46-.06-.92-.03-1.38-.03-.22,0-.43,.06-.63,.14-.27,.1-.34,.35-.24,.65,.08,.24,.27,.36,.48,.45,.26,.11,.54,.13,.83,.16,.59,.06,1.19,.02,1.78,.18,.48,.13,.96,.06,1.44-.06,.33-.08,.66-.17,.99-.21,.45-.05,.9-.13,1.33,.08,.09,.05,.18,.11,.27,.16,.02,.01,.04,.02,.06,.03,0-.03,0-.06,0-.08-.1-.18-.15-.36-.09-.56,.03-.1,.06-.2,.1-.3,.09-.18,.18-.36,.28-.54,.14-.25,.26-.51,.23-.8-.02-.17-.07-.33-.13-.49-.07-.21-.16-.4-.25-.61-.12-.29-.13-.58-.06-.88,.14-.55,.28-1.09,.54-1.6,.15-.3,.34-.57,.56-.81,.46-.51,.97-.95,1.56-1.31,.22-.13,.44-.24,.67-.33,.12-.05,.25-.07,.38-.07,.36,0,.73,.03,1.09,.04,.36,.02,.68-.11,.98-.29,.19-.11,.38-.22,.57-.32,.23-.11,.47-.17,.72-.17,.55,0,1.11,0,1.66,0,.23,0,.45,.05,.65,.15,.25,.13,.49,.26,.74,.37,.18,.08,.38,.15,.58,.15,.24,0,.48-.04,.72-.1,.48-.12,.96-.11,1.43,.02,.46,.13,.92,.26,1.35,.46,.2,.09,.38,.21,.55,.35,.31,.26,.6,.54,.88,.83,.28,.29,.54,.6,.81,.9,.09,.1,.16,.22,.24,.34,0,.01,.02,.03,.03,.04,0-.02,.02-.03,.02-.05,.02-.11,.04-.22,.05-.33,.03-.4,.07-.8,.09-1.21,0-.15-.02-.31-.02-.46-.02-.53-.06-1.07,.02-1.6,.04-.32,.19-.6,.36-.87,.16-.26,.38-.47,.65-.61,.42-.23,.8-.51,1.17-.82,.34-.28,.73-.45,1.17-.45,.19,0,.38,.06,.57,.11,.35,.1,.69,.23,1.03,.34,.42,.13,.84,.1,1.27,0,.22-.05,.44-.09,.66-.12,.34-.05,.65,.09,.97,.18,.36,.1,.7,.23,1.02,.43,.19,.12,.34,.28,.4,.5,.04,.16,.06,.33,.08,.5,.07,.51,.03,1.03,.14,1.54,.06,.27,.05,.55,.06,.82,0,.13-.03,.25-.04,.38-.04,.43,.05,.84,.16,1.24,.09,.35,.18,.7,.28,1.05,.08,.3,.16,.59,.4,.81,.21,.19,.5,.14,.61-.12,.05-.12,.07-.25,.08-.37,.03-.23,.06-.46,.09-.69,.04-.33,.07-.66,.11-.98,.04-.3-.09-.55-.23-.8-.14-.23-.27-.46-.35-.71-.08-.28-.07-.57-.04-.85,.04-.37,.12-.75,.19-1.12,.02-.13,.06-.25,.11-.37,.19-.46,.52-.73,1.03-.76,.2-.01,.4-.05,.6-.04,.27,.01,.54,.06,.82,.09,.26,.03,.53,.05,.79,.1,.26,.05,.52,.11,.77,.21,.28,.11,.58,.18,.81,.37,.24,.2,.51,.37,.68,.64,.02,.03,.05,.06,.08,.09,.12,.12,.11,.11,.25,0,.29-.25,.58-.51,.89-.75,.32-.24,.68-.35,1.08-.37,.29-.02,.58-.06,.86-.1,.19-.03,.35-.13,.49-.25,.2-.17,.39-.34,.6-.5,.31-.24,.64-.3,1-.11,.21,.11,.41,.23,.61,.35,.24,.14,.49,.25,.78,.23,.24-.02,.48-.07,.72-.08,.4-.01,.8-.13,1.21-.02,.15,.04,.32,.03,.48,.05,.34,.05,.69,.09,1.03,.15,.46,.09,.92,.03,1.38,.04,.25,0,.48,.05,.71,.15,.25,.1,.5,.19,.74,.29,.16,.07,.32,.16,.47,.24,.39,.22,.57,.57,.66,.99,.08,.37,.01,.75,.05,1.12,.05,.5-.18,.87-.5,1.21-.19,.21-.36,.43-.55,.64-.14,.15-.28,.3-.43,.43-.21,.17-.47,.22-.73,.21-.34,0-.67,.07-1.01,.13-.37,.06-.78-.04-1.02-.39-.18-.26-.33-.54-.57-.75-.12-.1-.24-.15-.39-.16-.25,0-.5,.04-.74,.11-.24,.06-.49,.1-.74,.09-.08,0-.16,.02-.24,.04-.25,.06-.25,.07-.25,.32,0,.14,0,.28,0,.41,0,.35,.15,.65,.42,.86,.23,.18,.52,.26,.81,.29,.28,.03,.54-.05,.8-.17,.18-.08,.36-.15,.53-.23,.31-.14,.63-.13,.95-.01,.39,.14,.77,.3,1.15,.45,.21,.08,.42,.16,.63,.25,.49,.21,.95,.46,1.3,.87,.15,.18,.26,.39,.36,.6,.12,.26,.23,.54,.28,.82,.05,.26,.04,.53,0,.79-.04,.33-.13,.65-.12,.98,0,.2,.03,.38,.09,.57,.08,.23,.14,.46,.21,.7,.07,.25,.08,.5-.02,.74-.18,.44-.43,.84-.76,1.18-.23,.23-.45,.47-.69,.69-.54,.5-1.15,.85-1.89,.96-.34,.05-.68,.1-1.03,.14-.32,.04-.61,.16-.9,.29-.35,.15-.71,.26-1.09,.3-.15,.02-.32-.03-.48-.06-.27-.06-.55-.14-.82-.21-.43-.11-.85-.08-1.26,.1-.23,.1-.47,.16-.71,.24-.22,.08-.43,.03-.63-.06-.27-.12-.49-.31-.72-.49-.12-.09-.24-.19-.38-.27-.19-.1-.39-.1-.59-.05-.22,.05-.44,.1-.65,.19-.24,.1-.48,.11-.72,.08-.15-.02-.3-.08-.42-.18-.27-.21-.54-.42-.73-.71-.01-.02-.03-.04-.05-.05-.11-.1-.21-.2-.32-.3-.07,.13-.14,.25-.21,.38-.23,.43-.56,.77-.95,1.05-.18,.13-.36,.27-.54,.4-.11,.08-.23,.14-.35,.21-.44,.26-.87,.22-1.32,.02-.29-.13-.56-.3-.88-.35-.27-.04-.53-.14-.81-.04-.44-.02-.89,.05-1.33-.07-.4-.11-.82-.17-1.23-.26-.2-.04-.38-.13-.54-.26-.26-.19-.32-.48-.36-.77-.03-.26-.03-.53-.06-.8-.04-.32-.09-.64-.24-.93-.1-.18-.18-.38-.25-.58-.11-.3-.16-.59-.11-.92,.04-.25,0-.52-.03-.77-.07-.51-.16-1.02-.25-1.52-.04-.21-.07-.43-.19-.62-.13-.22-.3-.28-.53-.2-.29,.11-.49,.32-.62,.58-.13,.26-.22,.54-.2,.84,0,.08,.02,.17,.06,.23,.12,.2,.25,.38,.45,.53,.32,.25,.6,.54,.65,.96,.05,.35,.11,.7,.02,1.06-.05,.2-.03,.42-.06,.62-.08,.54-.27,1.04-.62,1.48-.19,.23-.38,.44-.62,.61-.27,.19-.57,.32-.89,.34-.2,.01-.41-.06-.61-.12-.29-.08-.58-.18-.89-.24-.19-.03-.35,.01-.52,.05-.3,.07-.59,.19-.9,.17-.08,0-.11,.04-.12,.12-.03,.56-.27,1.03-.67,1.4-.3,.28-.6,.55-.91,.81-.24,.2-.53,.33-.84,.41-.42,.1-.83,.27-1.23,.43-.43,.17-.87,.25-1.35,.16-.38-.07-.75-.18-1.12-.29-.12-.04-.25-.07-.37-.11-.29-.11-.51-.32-.68-.56-.26-.39-.6-.69-.97-.97-.58-.43-.57-1.08-.21-1.58,.17-.23,.4-.39,.64-.54,.16-.1,.32-.22,.45-.36,.22-.22,.16-.48-.13-.6-.09-.04-.19-.06-.28-.07-.65-.08-1.31-.05-1.97-.05-.2,0-.4,.02-.6,.05-.29,.05-.4,.42-.2,.67,.1,.12,.24,.22,.35,.33,.17,.17,.35,.34,.5,.53,.24,.32,.26,.7,.2,1.09-.07,.48-.29,.89-.58,1.26-.18,.23-.43,.4-.68,.54-.43,.23-.89,.4-1.37,.45-.49,.05-.99,.07-1.48,.05-.43-.02-.83-.17-1.23-.35-.27-.12-.56-.2-.86-.24-.28-.04-.57-.02-.85-.04-.2-.02-.39-.08-.58-.14-.23-.08-.37-.26-.43-.49-.04-.16-.07-.33-.08-.5-.01-.33,0-.67,0-1,0-.15-.06-.26-.17-.36-.08-.07-.16-.16-.24-.23-.02-.02-.07-.02-.09,0-.34,.27-.72,.47-1.14,.58-.26,.06-.54,.1-.81,.14-.25,.04-.51,.07-.77,.1-.36,.03-.71,0-1.06-.11-.38-.13-.78-.15-1.17-.13-.21,.01-.41,.06-.62,.08-.13,.01-.26,0-.39,.02-.51,.03-1.01-.06-1.51-.18-.38-.09-.76-.09-1.15-.03-.38,.05-.78,.08-1.16,.05-.46-.03-.91-.12-1.36-.18-.46-.06-.79-.29-1.06-.66-.19-.26-.38-.53-.63-.74-.12-.1-.24-.19-.35-.3-.16-.16-.3-.34-.46-.5-.02-.02-.03-.03-.05-.05,0,.02,0,.05,0,.07-.01,.3,.04,.59,.08,.89,.07,.49-.02,.95-.35,1.34-.17,.2-.32,.41-.47,.62-.1,.13-.14,.29-.14,.46,0,.29,.04,.58,.08,.87,.04,.29,.05,.58-.13,.84-.14,.2-.34,.32-.57,.39-.27,.09-.54,.17-.81,.24-.3,.08-.53,.25-.77,.45-.27,.23-.5,.5-.84,.66-.29,.13-.57,.17-.86,.02-.27-.14-.55-.28-.82-.41-.23-.11-.47-.21-.72-.16-.23,.04-.45,.11-.67,.19-.28,.1-.56,.22-.87,.19-.14-.01-.28-.03-.4-.07-.73-.25-1.44-.57-2.05-1.03-.8-.6-1.42-1.37-1.83-2.29-.1-.24-.16-.49-.2-.74-.05-.38-.03-.76-.04-1.14,0-.09-.02-.1-.11-.09-.31,.03-.61,.04-.92,.06-.15,.01-.3,.04-.46,.05-.27,.01-.53-.04-.79-.08-.46-.07-.93-.1-1.39,.02-.31,.08-.63,.12-.95,.16-.12,.01-.26-.02-.38-.05-.5-.13-1.01-.19-1.5-.38-.4-.16-.66-.43-.72-.87-.04-.33-.06-.66-.1-.99-.02-.2-.06-.4-.1-.59-.06-.28-.1-.56-.09-.84,0-.23,.01-.46,0-.68,0-.18-.03-.35-.07-.53-.07-.33-.39-.61-.79-.63-.4-.02-.76,.19-.92,.55-.14,.31-.13,.64-.08,.96,.06,.39,.1,.79,.08,1.18,0,.17-.06,.33-.09,.5-.06,.33-.12,.66-.2,.99-.07,.3-.23,.55-.47,.75-.05,.04-.11,.08-.17,.09-.25,.04-.49,.1-.74,.1-.46,0-.9,.07-1.35,.13-.33,.05-.68,.03-1.02,0-.38-.04-.74-.05-1.08,.14-.16,.09-.34,.15-.51,.23-.26,.13-.52,.1-.78,.01-.24-.08-.47-.17-.71-.26-.06-.02-.12-.03-.18-.04,.03,.06,.06,.11,.09,.17,.08,.16,.18,.32,.25,.5,.11,.29,.14,.58,.08,.9-.06,.35-.13,.7-.26,1.03-.16,.39-.35,.76-.67,1.06-.27,.26-.6,.41-.93,.56-.23,.11-.48,.19-.73,.27-.3,.1-.59,.22-.9,.27-.3,.05-.61,.04-.91-.07-.27-.09-.55-.18-.84-.22-.23-.04-.46-.02-.7,0-.17,0-.33,.04-.5,.06-.57,.07-1.15,.08-1.72,.05-.43-.02-.87-.07-1.3-.1-.24-.01-.48-.08-.71-.11-.39-.05-.77-.15-1.17-.18-.42-.04-.84-.03-1.25-.14-.21-.06-.42-.11-.63-.15-.23-.04-.46-.06-.69-.1-.14-.02-.29-.05-.42-.1-.12-.04-.22-.12-.3-.22-.36-.46-.56-1-.71-1.55-.07-.24-.06-.46,.03-.69,.07-.19,.13-.38,.19-.57,0-.02,0-.04,0-.06-.02,0-.05,0-.07,.01-.24,.15-.47,.32-.71,.46-.22,.13-.44,.27-.68,.37-.17,.08-.37,.12-.56,.16-.37,.07-.74,.15-1.12,.18-.29,.02-.58,.1-.89,.03-.33-.08-.6-.23-.86-.42-.33-.23-.65-.47-.98-.72-.31-.23-.59-.5-.76-.86-.17-.37-.35-.73-.5-1.1-.07-.17-.09-.36-.13-.54-.04-.16-.09-.32-.12-.48-.09-.56-.4-1.04-.66-1.53-.1-.2-.22-.39-.35-.58-.14-.2-.31-.34-.56-.39-.49-.09-.99,.28-1.02,.78-.02,.32,.06,.61,.27,.86,.1,.12,.24,.21,.37,.31,.14,.11,.28,.22,.43,.31,.18,.1,.28,.27,.37,.44,.19,.34,.26,.71,.31,1.09,.04,.35,.11,.68,.21,1.02,.09,.29,.16,.58,.14,.88-.01,.26-.12,.46-.36,.56-.24,.1-.5,.19-.76,.25-.31,.07-.6,.2-.87,.35-.3,.16-.6,.32-.94,.36-.41,.06-.77,.23-1.13,.42-.46,.25-.92,.24-1.4,.04-.38-.16-.71-.39-1.04-.61-.21-.14-.36-.36-.48-.58-.21-.4-.44-.79-.53-1.24-.01-.07-.02-.14-.03-.21-.02-.13-.03-.26-.04-.38,0-.04-.01-.08,0-.12,.11-.61,.05-1.21-.11-1.8-.1-.39-.16-.78-.13-1.17,.01-.14,.05-.28,.09-.42,.08-.29,.18-.57,.26-.86,.11-.42,.07-.81-.24-1.15-.18-.19-.34-.39-.53-.57-.28-.28-.43-.6-.42-1,0-.16,0-.33,0-.49,.03-.48-.04-.95-.17-1.41-.15-.5-.15-1.03-.11-1.54,.02-.35,.17-.68,.38-.96,.28-.37,.59-.71,.99-.96,.28-.17,.58-.29,.88-.4,.29-.1,.58-.2,.87-.3,.07-.02,.14-.05,.2-.09,.35-.23,.73-.38,1.13-.49,.33-.09,.66-.13,1-.06,.32,.06,.65,.08,.98,.11,.34,.03,.66-.06,.98-.15,.26-.07,.51-.14,.78-.15,.29-.01,.46,.14,.6,.35,.13,.2,.2,.44,.26,.68,.06,.27,.13,.53,.22,.79,.1,.32,.15,.64,.17,.97,.05,.64,.14,1.27,.45,1.84,.18,.33,.32,.67,.53,.98,.22,.33,.51,.58,.92,.67,.38,.08,.79-.09,.91-.55,.12-.46,0-.87-.23-1.25-.16-.28-.38-.52-.6-.76-.25-.27-.39-.58-.45-.95-.09-.6-.2-1.21-.31-1.81-.05-.26-.1-.53-.08-.79,.03-.27,.12-.5,.37-.67,.39-.27,.83-.4,1.27-.51,.37-.09,.74-.14,1.12-.2,.47-.07,.95-.07,1.43-.05,.45,.02,.76,.29,1.04,.61,.19,.21,.36,.45,.59,.61,.43,.31,.66,.75,.88,1.2,.09,.19,.18,.38,.28,.56,.15,.29,.24,.59,.22,.93-.02,.36,0,.72,0,1.07,0,.04,.01,.08,.02,.12,.03-.02,.07-.02,.1-.05,.29-.25,.64-.4,.99-.56,.18-.08,.38-.13,.57-.21,.21-.09,.41-.2,.6-.32,.3-.2,.63-.32,.97-.34,.23-.02,.48,.05,.71,.12,.46,.15,.92,.22,1.41,.21,.61-.01,1.22,0,1.83,0,.53,0,1.05,.03,1.58,.05,.21,0,.4-.03,.59-.1,.18-.06,.35-.12,.53-.17,.12-.03,.25-.06,.38-.07,.14-.02,.14-.01,.15-.16,0-.02,0-.03,0-.05-.02-.37,.04-.72,.14-1.08,.12-.44,.2-.9,.4-1.32,.08-.17,.18-.35,.29-.5,.16-.22,.31-.46,.56-.6,.22-.12,.43-.27,.66-.35,.49-.16,.96-.37,1.45-.54,.49-.17,.98-.16,1.44,.14,.05,.03,.1,.06,.14,.09,.38,.28,.8,.48,1.26,.6,.14,.03,.27,.11,.4,.16,.35,.14,.48,.42,.5,.76,.02,.38,0,.76-.08,1.13-.04,.2-.04,.4-.06,.6-.06,.48-.15,.95-.34,1.41-.19,.48-.35,.97-.43,1.48-.02,.13-.02,.26,0,.39,.05,.34,.25,.52,.63,.55,.18,.02,.35,.05,.53,.04,.26-.01,.53-.05,.79-.09,.16-.02,.26-.13,.31-.28,.06-.18,.09-.37,.07-.56-.05-.54-.28-1.02-.46-1.52-.19-.5-.36-1.02-.5-1.54-.1-.37-.03-.72,.27-1,.08-.08,.16-.17,.24-.24,.32-.27,.56-.61,.74-.98,.27-.54,.73-.74,1.29-.75,.41,0,.82,.06,1.23,.09,.04,0,.08,0,.12,0,.31-.07,.62-.04,.94,0,.24,.03,.48,.03,.72,.11,.32,.1,.65,.19,.96,.32,.36,.15,.58,.44,.66,.84,.08,.41,.06,.83,.03,1.24-.02,.29,.02,.56,.05,.83,.04,.35,.12,.71,0,1.06-.07,.21-.17,.42-.27,.62-.14,.28-.25,.58-.32,.89-.08,.34,0,.64,.18,.92,.05,.09,.17,.16,.27,.19,.36,.11,.73,.12,1.1,.03,.27-.06,.43-.23,.44-.53,0-.22,.03-.43,.05-.65,.02-.27,.04-.55,.05-.82,0-.41-.12-.79-.35-1.14-.2-.31-.4-.62-.6-.94-.06-.1-.08-.21-.08-.33-.01-.5,.01-.99,.2-1.46,.06-.14,.11-.29,.18-.42,.11-.22,.3-.36,.5-.49,.31-.21,.65-.35,1-.48,.31-.12,.62-.24,.95-.28,.08,0,.16-.03,.24-.03,.29,0,.59,0,.88,0,.43-.02,.85,.05,1.27,.16,.41,.11,.81,.23,1.16,.46,.28,.18,.51,.4,.54,.76,.02,.29,.06,.58,.1,.86,.04,.31,.14,.59,.26,.88,.13,.31,.29,.61,.38,.94,.09,.37,.04,.72-.12,1.06-.13,.29-.27,.57-.4,.86-.11,.23-.14,.47-.17,.72-.06,.42-.06,.85-.03,1.26,.04,.57,.02,1.13,.04,1.7,.01,.26,.06,.53,.09,.79,0,.07,0,.15,0,.22,0,.27,0,.54,0,.81,0,.07,.04,.14,.06,.21,.06-.03,.12-.04,.16-.08,.24-.17,.53-.1,.79,.14,.21,.19,.36,.43,.54,.65,.13,.16,.27,.29,.45,.4,.22,.13,.39,.08,.56-.05,.37-.29,.55-.81,.45-1.28-.13-.57-.43-1.02-.81-1.44-.19-.21-.39-.41-.57-.63-.24-.27-.36-.61-.43-.96-.06-.27-.09-.56-.1-.84-.03-.53,.18-.97,.54-1.33,.48-.46,1.04-.8,1.71-.91,.34-.06,.68-.12,1.03-.14,.18-.01,.37,.03,.55,.07,.37,.08,.73,.19,1.11,.25,.24,.04,.49,.02,.73,0,.23-.01,.46-.07,.69-.09,.3-.03,.6,.05,.87,.17,.38,.16,.74,.37,1.07,.62,.03,.02,.05,.05,.07,.06,.03,.02,.07,.03,.11,.04,0-.03,0-.06,.01-.1,.03-.46,.09-.91,.19-1.36,.14-.59,.17-1.18,.15-1.78,0-.11,.01-.23,.04-.33,.13-.42,.27-.49,.71-.54,.31-.03,.63-.02,.94-.06,.24-.03,.47-.1,.68-.24,.22-.15,.45-.29,.68-.42,.2-.11,.41-.18,.63-.23,.35-.07,.68-.2,1.02-.3,.31-.1,.62-.18,.95-.16,.24,.02,.48,.08,.71,.12,.33,.06,.65,.11,.98,.13,.27,.01,.54,.09,.8,.16,.24,.06,.48,.15,.72,.2,.15,.03,.31,.02,.46,0,.27-.06,.54-.12,.79-.23,.58-.25,1.09-.1,1.58,.21,.15,.09,.3,.19,.45,.29,.25,.16,.53,.21,.8,.25,.26,.04,.53,.04,.8,.05,.19,0,.36,.06,.5,.17,.16,.14,.21,.34,.15,.55-.08,.26-.15,.53-.24,.78-.09,.26-.14,.51-.13,.78,.02,.34-.03,.68-.1,1.01-.02,.08-.04,.16-.08,.23-.16,.33-.32,.65-.54,.95-.18,.24-.42,.37-.72,.37-.39,.01-.77-.05-1.14-.18-.24-.08-.47-.17-.71-.23-.23-.06-.47-.11-.71-.12-.63-.02-1.27-.01-1.9,0-.38,0-.74,.09-1.06,.29-.26,.16-.41,.39-.4,.7,0,.16,.08,.27,.25,.32,.17,.05,.34,.1,.52,.09,.09,0,.18,0,.27,0,.49-.03,.97,.06,1.44,.17,.47,.12,.91,.07,1.33-.16,.3-.16,.61-.3,.92-.44,.26-.11,.53-.14,.81-.12,.23,.02,.44,.09,.63,.23,.32,.25,.6,.52,.72,.92,.05,.18,.08,.36,.09,.55,.01,.28,0,.57,0,.85,0,.5-.19,.93-.5,1.31-.16,.19-.4,.28-.64,.3-.41,.04-.82,.05-1.24,.07v-.02Zm38.19,.34c.17,.04,.35,.08,.53,.12,.42,.09,.83,.19,1.25,.27,.27,.05,.48,.19,.66,.38,.17,.17,.34,.35,.52,.52,.19,.17,.41,.3,.68,.23,.43-.1,.73-.36,.97-.72,.04-.07,.08-.14,.1-.22,.06-.24-.02-.52-.2-.63-.18-.1-.38-.2-.58-.25-.39-.1-.79-.16-1.2-.16-.34,0-.68,0-1.02,0-.53,.01-1.02-.12-1.49-.35-.22-.11-.44-.21-.67-.29-.33-.11-.61-.29-.85-.54-.18-.18-.36-.36-.53-.54-.09-.09-.1-.09-.13,.05-.05,.18-.07,.36-.12,.54-.06,.23-.06,.44,0,.67,.06,.2,.1,.41,.15,.61,0,.03,.04,.04,.06,.07,.08,.08,.17,.14,.24,.23,.13,.18,.29,.25,.5,.2,.1-.02,.2-.05,.31-.07,.27-.05,.54-.1,.82-.15Zm-28.95-1.04s.02,0,.03,0c0,.06,0,.11,0,.17,0,.23,.08,.32,.31,.35,.14,.02,.27,.04,.41,.05,.13,0,.23,.06,.32,.15,.18,.17,.37,.34,.56,.51,.16,.15,.36,.2,.58,.19,.28-.01,.54-.11,.78-.23,.2-.1,.41-.18,.63-.23,.27-.05,.52-.17,.76-.31,.37-.22,.48-.78,0-1.11-.16-.12-.35-.21-.53-.29-.3-.14-.6-.15-.92-.04-.16,.06-.34,.1-.51,.14-.27,.06-.53,.05-.78-.09-.21-.11-.4-.24-.61-.35-.38-.2-.49-.15-.7,.09-.08,.1-.16,.21-.19,.33-.06,.21-.09,.44-.13,.66Zm-52.46,.55s0-.01,0-.02c.02,0,.05,0,.07,0,.19,0,.18,0,.14-.2-.04-.23-.08-.46-.11-.69-.01-.08-.04-.12-.12-.11-.05,0-.1,0-.15,0-.4,.02-.79,.03-1.19,.05-.21,.01-.37-.06-.53-.2-.19-.17-.38-.33-.58-.48-.17-.13-.36-.2-.58-.2-.46,0-.87,.16-1.26,.39-.25,.15-.44,.36-.56,.63-.09,.2-.13,.41,0,.59,.08,.11,.18,.22,.3,.28,.59,.32,1.19,.35,1.8,.05,.2-.1,.39-.2,.59-.29,.24-.11,.5-.21,.77-.14,.32,.08,.64,.17,.96,.25,.14,.04,.28,.06,.42,.09Zm-3.83,3.4v-.03c-.12,0-.23,0-.34,0-.14,.01-.28,.01-.4,.06-.26,.1-.39,.27-.29,.57,.07,.2,.21,.33,.39,.44,.38,.22,.82,.24,1.24,.27,.39,.03,.77-.05,1.14-.16,.26-.08,.52-.16,.78-.25,.33-.11,.67-.12,1,0,.26,.09,.5,.21,.76,.3,.23,.08,.48,.14,.72,.2,.03,0,.08-.02,.1-.04,.01-.01,0-.06-.02-.09,0-.02-.03-.04-.05-.05-.27-.3-.47-.7-.56-1.1-.02-.09-.06-.16-.18-.16-.16,0-.33-.01-.49,.01-.46,.07-.92,.07-1.37-.04-.41-.1-.82-.07-1.23-.06-.4,.01-.8,.08-1.2,.12Z"/></g></svg>