<?xml version="1.0" encoding="utf-8"?>
<!-- Generator: Adobe Illustrator 20.1.0, SVG Export Plug-In . SVG Version: 6.00 Build 0)  -->
<svg version="1.1" id="logos" xmlns="http://www.w3.org/2000/svg" xmlns:xlink="http://www.w3.org/1999/xlink" x="0px" y="0px"
	 viewBox="0 0 125 40" enable-background="new 0 0 125 40" xml:space="preserve">
<g id="Layer_2_1_">
</g>
<g>
	<circle fill="#00CD3C" cx="79.655" cy="9.459" r="3.628"/>
	<path fill="#00CD3C" d="M19.596,8.204c0.634-1.267,1.676-1.9,3.166-1.9c2.012,0,3.13,1.34,3.13,3.315v20.378
		c0,1.901-1.23,2.944-2.757,2.944s-2.757-1.043-2.757-2.944v-12.07l-4.433,8.457c-0.745,1.415-1.788,1.9-3.018,1.9
		c-1.229,0-2.272-0.484-2.98-1.863l-4.433-8.493v12.07c0,1.901-1.23,2.944-2.756,2.944C1.23,32.941,0,31.898,0,29.997V9.62
		c0-1.975,1.118-3.315,3.129-3.315c1.49,0,2.533,0.633,3.167,1.9l6.631,13.076L19.596,8.204z"/>
	<path fill="#00CD3C" d="M45.185,24.745h-9.351c0.298,1.901,1.751,3.353,4.098,3.353c1.454,0,2.496-0.484,3.278-1.118
		c1.379-1.08,2.831-0.67,3.725,0.522c0.783,1.08,0.671,2.496-0.782,3.614c-1.528,1.155-3.278,1.825-6.073,1.825
		c-5.476,0-9.611-3.688-9.611-9.426c0-5.513,3.688-9.685,8.978-9.685c5.887,0,8.681,4.507,8.681,8.01
		C48.127,23.479,47.382,24.745,45.185,24.745z M36.094,21.206h6.557c-0.112-1.528-1.341-2.72-3.092-2.72
		C37.585,18.486,36.43,19.716,36.094,21.206z"/>
	<path fill="#00CD3C" d="M57.922,30.11c0,1.826-1.192,2.831-2.645,2.831c-1.453,0-2.645-1.006-2.645-2.831V9.321
		c0-1.825,1.192-2.831,2.645-2.831c1.453,0,2.645,1.007,2.645,2.831V30.11z"/>
	<path fill="#00CD3C" d="M71.965,13.83c5.476,0,9.649,4.097,9.649,9.574c0,5.476-4.172,9.537-9.649,9.537
		c-5.476,0-9.649-4.061-9.649-9.537C62.316,17.928,66.489,13.83,71.965,13.83z M71.965,28.024c2.459,0,4.247-1.937,4.247-4.62
		s-1.788-4.62-4.247-4.62s-4.247,1.937-4.247,4.62S69.506,28.024,71.965,28.024z"/>
	<path fill="#00CD3C" d="M86.006,17.145c0-1.826,1.192-2.831,2.645-2.831c1.118,0,2.049,0.559,2.458,1.639
		c0.969-1.155,2.571-1.9,4.434-1.9c4.47,0,7.413,2.905,7.413,8.084v7.973c0,1.826-1.192,2.831-2.645,2.831
		c-1.454,0-2.646-1.006-2.646-2.831v-7.563c0-1.936-0.894-3.577-3.017-3.577c-2.496,0-3.353,1.863-3.353,4.657v6.483
		c0,1.826-1.192,2.831-2.645,2.831c-1.453,0-2.645-1.006-2.645-2.831V17.145z"/>
</g>
<rect fill="none" width="125" height="40"/>
</svg>
